<svg width="776" height="776" viewBox="0 0 776 776" fill="none" xmlns="http://www.w3.org/2000/svg">
<path d="M364.857 242.08C364.857 242.25 364.857 242.419 364.857 242.581C364.857 260.453 368.851 278.124 373.927 292.011C367.994 280.969 361.859 261.884 361.859 242.468C361.859 242.339 361.859 242.209 361.859 242.08C361.859 241.959 361.859 241.829 361.859 241.7C361.859 222.252 370.516 203.126 376.586 192.101C370.492 205.996 364.857 223.682 364.857 241.587C364.857 241.757 364.857 241.918 364.857 242.08ZM399.398 145.201C399.398 145.201 356.346 192.691 356.346 241.433C356.346 241.635 356.346 241.846 356.346 242.056C356.346 242.266 356.346 242.468 356.346 242.678C356.346 291.421 386.957 338.91 399.398 338.91C411.83 338.91 442.441 291.421 442.441 242.678C442.441 242.468 442.441 242.266 442.441 242.056C442.441 241.846 442.441 241.635 442.441 241.433C442.441 192.691 399.398 145.201 399.398 145.201Z" fill="#F29F05"/>
<path d="M361.859 454.267C361.859 454.137 361.859 454.016 361.859 453.887C361.859 453.757 361.859 453.628 361.859 453.499C361.859 434.082 367.994 414.998 373.927 403.964C368.851 417.851 364.857 435.513 364.857 453.385C364.857 453.555 364.857 453.717 364.857 453.887C364.857 454.056 364.857 454.218 364.857 454.388C364.857 472.284 370.492 489.971 376.586 503.866C370.516 492.84 361.859 473.715 361.859 454.267ZM399.398 357.064C386.957 357.064 356.346 404.554 356.346 453.288C356.346 453.499 356.346 453.709 356.346 453.911C356.346 454.121 356.346 454.331 356.346 454.541C356.346 503.276 399.398 550.773 399.398 550.773C399.398 550.773 442.441 503.276 442.441 454.541C442.441 454.331 442.441 454.121 442.441 453.911C442.441 453.709 442.441 453.499 442.441 453.288C442.441 404.554 411.83 357.064 399.398 357.064Z" fill="#487307"/>
<path d="M245.661 372.157C245.782 372.27 245.895 372.391 246.016 372.504C246.137 372.625 246.251 372.739 246.364 372.86C259.006 385.494 274.324 395.162 287.726 401.394C275.731 397.789 257.899 388.622 244.165 374.889C244.076 374.808 243.987 374.711 243.898 374.622C243.809 374.533 243.712 374.444 243.624 374.355C229.874 360.597 222.469 340.963 218.969 328.87C224.482 343 233.002 359.498 245.661 372.157ZM239.978 378.502C240.123 378.647 240.269 378.793 240.414 378.947C274.882 413.406 330.107 425.345 338.902 416.55C347.696 407.756 335.765 352.53 301.298 318.063C301.153 317.917 300.999 317.772 300.854 317.626C300.708 317.473 300.563 317.327 300.417 317.182C265.95 282.714 201.93 279.578 201.93 279.578C201.93 279.578 205.074 343.598 239.533 378.057C239.679 378.211 239.832 378.348 239.978 378.502Z" fill="#487307"/>
<path d="M248.748 497.821C248.659 497.724 248.57 497.635 248.473 497.546C248.384 497.457 248.295 497.368 248.207 497.271C234.449 483.521 227.052 463.887 223.544 451.786C229.065 465.924 237.585 482.422 250.244 495.073C250.357 495.194 250.478 495.307 250.591 495.428C250.712 495.541 250.826 495.663 250.947 495.784C263.589 508.418 278.899 518.086 292.309 524.318C280.305 520.705 262.474 511.546 248.748 497.821ZM305.437 440.55C305.283 440.397 305.146 440.251 304.992 440.106C270.533 405.639 206.513 402.494 206.513 402.494C206.513 402.494 209.649 466.522 244.116 500.981C244.262 501.127 244.407 501.272 244.561 501.426C244.706 501.572 244.852 501.717 244.997 501.871C279.465 536.33 334.69 548.261 343.485 539.466C352.279 530.68 340.34 475.454 305.873 440.987C305.728 440.841 305.582 440.696 305.437 440.55Z" fill="#F29F05"/>
<path d="M499.97 321.814C500.059 321.725 500.148 321.636 500.245 321.547C500.325 321.45 500.422 321.361 500.511 321.272C514.261 307.522 533.904 300.118 545.996 296.61C531.858 302.131 515.368 310.65 502.71 323.309C502.597 323.43 502.476 323.543 502.362 323.665C502.241 323.778 502.12 323.899 501.999 324.012C489.364 336.655 479.705 351.972 473.473 365.375C477.078 353.371 486.244 335.539 499.97 321.814ZM556.796 378.947C556.949 378.793 557.087 378.647 557.24 378.502C557.386 378.348 557.531 378.211 557.685 378.057C592.144 343.598 595.288 279.578 595.288 279.578C595.288 279.578 531.26 282.714 496.801 317.182C496.647 317.327 496.51 317.473 496.356 317.626C496.211 317.772 496.065 317.917 495.92 318.063C461.453 352.53 449.514 407.756 458.316 416.55C467.111 425.345 522.336 413.406 556.796 378.947Z" fill="#487307"/>
<path d="M500.245 444.463C500.325 444.374 500.422 444.285 500.511 444.196C514.261 430.438 533.904 423.034 545.996 419.542C531.858 425.055 515.368 433.575 502.71 446.233C502.597 446.346 502.476 446.467 502.362 446.581C502.241 446.702 502.12 446.815 501.999 446.936C489.364 459.579 479.705 474.888 473.473 488.299C477.078 476.303 486.244 458.463 499.97 444.738C500.059 444.641 500.148 444.56 500.245 444.463ZM496.356 440.55C496.211 440.696 496.065 440.841 495.92 440.987C461.453 475.454 449.514 530.68 458.316 539.466C467.111 548.261 522.336 536.33 556.796 501.871C556.949 501.717 557.087 501.572 557.24 501.426C557.386 501.272 557.531 501.127 557.685 500.981C592.144 466.522 595.288 402.494 595.288 402.494C595.288 402.494 531.26 405.639 496.801 440.106C496.647 440.251 496.51 440.397 496.356 440.55Z" fill="#F29F05"/>
<path d="M197.087 593.721C197.087 593.721 197.62 592.977 198.655 591.611C199.714 590.253 201.298 588.264 203.521 585.912C204.621 584.716 205.89 583.447 207.328 582.113C208.032 581.418 208.816 580.755 209.616 580.052C210.432 579.373 211.273 578.653 212.178 577.942C212.631 577.594 213.092 577.231 213.561 576.875C214.038 576.527 214.531 576.172 215.024 575.816C215.525 575.452 216.042 575.105 216.568 574.757C217.085 574.402 217.619 574.038 218.168 573.69C220.359 572.284 222.768 570.934 225.37 569.681C230.584 567.183 236.647 565.09 243.315 563.958C244.148 563.82 244.981 563.683 245.829 563.578C246.258 563.521 246.686 563.465 247.115 563.408C247.543 563.368 247.971 563.319 248.4 563.279C249.265 563.182 250.13 563.133 251.011 563.061C251.884 563.012 252.765 562.98 253.654 562.956C255.424 562.915 257.219 562.899 259.021 562.996C260.824 563.069 262.643 563.206 264.461 563.408C271.753 564.192 279.092 565.938 286.206 568.355C293.335 570.78 300.254 573.828 306.899 577.198C313.543 580.577 319.921 584.263 326.04 587.982C332.167 591.692 338.028 595.459 343.662 598.943C349.296 602.426 354.72 605.652 359.901 608.166C362.496 609.427 365.018 610.486 367.459 611.294C369.9 612.078 372.253 612.603 374.451 612.773C376.658 612.919 378.727 612.749 380.643 612.207C381.605 611.932 382.535 611.585 383.408 611.156C383.634 611.051 383.844 610.922 384.062 610.817C384.281 610.704 384.491 610.583 384.693 610.453C384.903 610.324 385.113 610.203 385.323 610.073C385.526 609.936 385.728 609.807 385.922 609.669C387.53 608.594 388.896 607.268 390.141 605.983C391.37 604.682 392.413 603.348 393.326 602.111C395.153 599.613 396.43 597.471 397.295 596C398.152 594.521 398.604 593.721 398.604 593.721C398.604 593.721 398.572 593.955 398.507 594.392C398.427 594.828 398.346 595.491 398.168 596.332C398.079 596.752 397.982 597.229 397.877 597.746C397.756 598.272 397.618 598.837 397.473 599.444C397.303 600.05 397.133 600.705 396.923 601.408C396.697 602.095 396.478 602.847 396.187 603.615C395.646 605.167 394.918 606.864 393.956 608.675C393.73 609.136 393.447 609.58 393.189 610.049C392.922 610.518 392.598 610.962 392.291 611.439C391.976 611.908 391.628 612.369 391.273 612.854C390.893 613.307 390.537 613.8 390.109 614.26C388.468 616.136 386.326 617.922 383.715 619.353C381.104 620.784 378.016 621.705 374.815 622.077C371.614 622.457 368.316 622.287 365.067 621.794C361.825 621.285 358.6 620.46 355.439 619.418C349.086 617.34 342.886 614.503 336.71 611.399C330.535 608.287 324.383 604.908 318.208 601.497C312.04 598.086 305.848 594.675 299.624 591.522C293.4 588.353 287.151 585.443 280.911 583.026C274.671 580.61 268.447 578.702 262.352 577.481C259.304 576.875 256.289 576.455 253.323 576.18C251.843 576.067 250.372 575.97 248.925 575.937C248.562 575.937 248.198 575.921 247.834 575.913C247.478 575.921 247.115 575.921 246.759 575.921C246.04 575.913 245.328 575.937 244.617 575.954C238.934 576.131 233.567 577.045 228.652 578.362C223.738 579.672 219.3 581.41 215.428 583.196C211.54 584.975 208.242 586.834 205.534 588.41C204.176 589.202 202.988 589.962 201.937 590.601C200.894 591.263 200.013 591.829 199.294 592.282C197.871 593.236 197.087 593.721 197.087 593.721Z" fill="#487307"/>
<path d="M600.13 593.721C600.13 593.721 599.346 593.236 597.923 592.282C597.204 591.829 596.323 591.263 595.28 590.601C594.229 589.962 593.041 589.202 591.683 588.41C588.975 586.834 585.669 584.975 581.789 583.196C577.917 581.41 573.479 579.672 568.557 578.362C563.65 577.045 558.275 576.131 552.6 575.954C551.889 575.937 551.177 575.913 550.458 575.921C550.102 575.921 549.739 575.921 549.383 575.913C549.019 575.921 548.655 575.937 548.292 575.937C546.845 575.97 545.374 576.067 543.886 576.18C540.928 576.455 537.913 576.875 534.857 577.481C528.762 578.702 522.546 580.61 516.306 583.026C510.066 585.443 503.817 588.353 497.593 591.522C491.369 594.675 485.177 598.086 479.001 601.497C472.834 604.908 466.682 608.287 460.507 611.399C454.323 614.503 448.123 617.34 441.778 619.418C438.609 620.46 435.392 621.285 432.15 621.794C428.901 622.287 425.603 622.457 422.394 622.077C419.201 621.705 416.105 620.784 413.502 619.353C410.891 617.922 408.749 616.136 407.108 614.26C406.68 613.8 406.324 613.307 405.936 612.854C405.588 612.369 405.241 611.908 404.926 611.439C404.618 610.962 404.295 610.518 404.028 610.049C403.762 609.58 403.487 609.136 403.26 608.675C402.299 606.864 401.571 605.167 401.029 603.615C400.738 602.847 400.52 602.095 400.294 601.408C400.084 600.705 399.914 600.05 399.744 599.444C399.599 598.837 399.461 598.272 399.34 597.746C399.227 597.229 399.13 596.752 399.049 596.332C398.871 595.491 398.79 594.828 398.71 594.392C398.645 593.955 398.604 593.721 398.604 593.721C398.604 593.721 399.065 594.521 399.922 596C400.779 597.471 402.064 599.613 403.891 602.111C404.796 603.348 405.847 604.682 407.076 605.983C408.313 607.268 409.687 608.594 411.295 609.669C411.489 609.807 411.691 609.936 411.893 610.073C412.104 610.203 412.306 610.324 412.516 610.453C412.726 610.583 412.936 610.704 413.154 610.817C413.373 610.922 413.583 611.051 413.801 611.156C414.682 611.585 415.612 611.932 416.566 612.207C418.481 612.749 420.559 612.919 422.757 612.773C424.964 612.603 427.316 612.078 429.75 611.294C432.199 610.486 434.721 609.427 437.316 608.166C442.497 605.652 447.913 602.426 453.547 598.943C459.189 595.459 465.05 591.692 471.177 587.982C477.296 584.263 483.674 580.577 490.318 577.198C496.963 573.828 503.882 570.78 511.003 568.355C518.117 565.938 525.464 564.192 532.756 563.408C534.574 563.206 536.393 563.069 538.196 562.996C539.998 562.899 541.793 562.915 543.563 562.956C544.452 562.98 545.333 563.012 546.206 563.061C547.079 563.133 547.952 563.182 548.817 563.279C549.246 563.319 549.674 563.368 550.102 563.408C550.531 563.465 550.959 563.521 551.38 563.578C552.236 563.683 553.069 563.82 553.902 563.958C560.57 565.09 566.633 567.183 571.838 569.681C574.449 570.934 576.85 572.284 579.049 573.69C579.598 574.038 580.124 574.402 580.657 574.757C581.183 575.105 581.692 575.452 582.193 575.816C582.686 576.172 583.171 576.527 583.648 576.875C584.125 577.231 584.578 577.594 585.039 577.942C585.944 578.653 586.785 579.373 587.601 580.052C588.401 580.755 589.177 581.418 589.889 582.113C591.319 583.447 592.596 584.716 593.696 585.912C595.919 588.264 597.495 590.253 598.554 591.611C599.589 592.977 600.13 593.721 600.13 593.721Z" fill="#487307"/>
</svg>
